<?xml version="1.0" encoding="us-ascii" standalone="no"?><svg xmlns="http://www.w3.org/2000/svg" xmlns:xlink="http://www.w3.org/1999/xlink" contentStyleType="text/css" height="1497px" preserveAspectRatio="none" style="width:1130px;height:1497px;background:#FFFFFF;" version="1.1" viewBox="0 0 1130 1497" width="1130px" zoomAndPan="magnify"><defs/><g><ellipse cx="565.5" cy="20" fill="#222222" rx="10" ry="10" style="stroke:#222222;stroke-width:1.0;"/><rect fill="#F1F1F1" height="35.0938" rx="12.5" ry="12.5" style="stroke:#181818;stroke-width:0.5;" width="128" x="501.5" y="50"/><text fill="#000000" font-family="sans-serif" font-size="12" lengthAdjust="spacing" textLength="108" x="511.5" y="72.457">&#38899;&#22768;&#12467;&#12510;&#12531;&#12489;&#12434;&#35469;&#35672;</text><rect fill="#F1F1F1" height="35.0938" rx="12.5" ry="12.5" style="stroke:#181818;stroke-width:0.5;" width="224" x="453.5" y="154.0117"/><text fill="#000000" font-family="sans-serif" font-size="12" lengthAdjust="spacing" textLength="204" x="463.5" y="176.4688">&#12371;&#12398;&#24109;&#12363;&#12425;&#12371;&#12398;&#27231;&#33021;&#12399;&#20351;&#29992;&#12391;&#12365;&#12414;&#12379;&#12435;</text><ellipse cx="565.5" cy="228.0586" fill="none" rx="11" ry="11" style="stroke:#222222;stroke-width:1.0;"/><ellipse cx="565.5" cy="228.0586" fill="#222222" rx="6" ry="6" style="stroke:#222222;stroke-width:1.0;"/><polygon fill="#F1F1F1" points="549,105.0938,582,105.0938,594,117.0938,582,129.0938,549,129.0938,537,117.0938,549,105.0938" style="stroke:#181818;stroke-width:0.5;"/><text fill="#000000" font-family="sans-serif" font-size="11" lengthAdjust="spacing" textLength="22" x="569.5" y="140.5127">Rr&#24109;</text><text fill="#000000" font-family="sans-serif" font-size="11" lengthAdjust="spacing" textLength="33" x="549" y="121.5947">&#30330;&#35441;&#24109;</text><text fill="#000000" font-family="sans-serif" font-size="11" lengthAdjust="spacing" textLength="21" x="594" y="114.6768">Fr&#24109;</text><polygon fill="#F1F1F1" points="543.5,281.0586,587.5,281.0586,599.5,293.0586,587.5,305.0586,543.5,305.0586,531.5,293.0586,543.5,281.0586" style="stroke:#181818;stroke-width:0.5;"/><text fill="#000000" font-family="sans-serif" font-size="11" lengthAdjust="spacing" textLength="44" x="543.5" y="297.5596">&#30330;&#35441;&#20869;&#23481;</text><rect fill="none" height="344.9844" style="stroke:#000000;stroke-width:1.5;" width="769" x="11" y="328.8945"/><path d="M107,328.8945 L107,339.5039 L97,349.5039 L11,349.5039 " fill="none" style="stroke:#000000;stroke-width:1.5;"/><text fill="#000000" font-family="sans-serif" font-size="14" lengthAdjust="spacing" textLength="86" x="14" y="344.4277">&lt;&#12514;&#12540;&#12489;&#25552;&#26696;&gt;</text><polygon fill="#F1F1F1" points="265.25,370.1758,265.25,370.1758,277.25,382.1758,265.25,394.1758,265.25,394.1758,253.25,382.1758,265.25,370.1758" style="stroke:#181818;stroke-width:0.5;"/><text fill="#000000" font-family="sans-serif" font-size="11" lengthAdjust="spacing" textLength="55" x="198.25" y="379.7588">&#20241;&#12415;&#12383;&#12356;&#12394;</text><text fill="#000000" font-family="sans-serif" font-size="11" lengthAdjust="spacing" textLength="47" x="277.25" y="365.9229">&#30130;&#12428;&#12383;&#12394;,</text><text fill="#000000" font-family="sans-serif" font-size="11" lengthAdjust="spacing" textLength="88" x="277.25" y="379.7588">&#30427;&#12426;&#19978;&#12364;&#12426;&#12383;&#12356;&#12394;</text><rect fill="#F1F1F1" height="50.1875" rx="12.5" ry="12.5" style="stroke:#181818;stroke-width:0.5;" width="116" x="23" y="404.1758"/><text fill="#000000" font-family="sans-serif" font-size="12" lengthAdjust="spacing" textLength="72" x="33" y="426.6328">&#38609;&#35527;&#12434;&#23455;&#26045;&#12290;</text><text fill="#000000" font-family="sans-serif" font-size="12" lengthAdjust="spacing" textLength="96" x="33" y="441.7266">&#12514;&#12540;&#12489;&#25552;&#26696;&#12375;&#12394;&#12356;</text><ellipse cx="81" cy="500.3633" fill="none" rx="11" ry="11" style="stroke:#222222;stroke-width:1.0;"/><ellipse cx="81" cy="500.3633" fill="#222222" rx="6" ry="6" style="stroke:#222222;stroke-width:1.0;"/><polygon fill="#F1F1F1" points="422,404.1758,477,404.1758,489,416.1758,477,428.1758,422,428.1758,410,416.1758,422,404.1758" style="stroke:#181818;stroke-width:0.5;"/><text fill="#000000" font-family="sans-serif" font-size="11" lengthAdjust="spacing" textLength="55" x="422" y="420.6768">&#12514;&#12540;&#12489;&#25552;&#26696;</text><ellipse cx="159" cy="489.6836" fill="#F1F1F1" rx="10" ry="10" style="stroke:#181818;stroke-width:0.5;"/><path d="M155.4844,493.6836 L158.7813,485.0898 L160,485.0898 L163.5156,493.6836 L162.2344,493.6836 L161.2188,491.0742 L157.6406,491.0742 L156.6875,493.6836 L155.4844,493.6836 Z M157.9688,490.1523 L160.875,490.1523 L159.9844,487.7773 Q159.5625,486.6992 159.375,485.9961 Q159.2031,486.8242 158.9063,487.6367 L157.9688,490.1523 Z " fill="#000000"/><ellipse cx="278" cy="504.5195" fill="none" rx="11" ry="11" style="stroke:#222222;stroke-width:1.0;"/><ellipse cx="278" cy="504.5195" fill="#222222" rx="6" ry="6" style="stroke:#222222;stroke-width:1.0;"/><rect fill="#F1F1F1" height="50.1875" rx="12.5" ry="12.5" style="stroke:#181818;stroke-width:0.5;" width="188" x="390" y="493.5195"/><text fill="#000000" font-family="sans-serif" font-size="12" lengthAdjust="spacing" textLength="70" x="400" y="515.9766">&#12300;xx&#12514;&#12540;&#12489;&#12434;</text><text fill="#000000" font-family="sans-serif" font-size="12" lengthAdjust="spacing" textLength="168" x="400" y="531.0703">&#12375;&#12400;&#12425;&#12367;&#32154;&#12369;&#12414;&#12375;&#12423;&#12358;&#12301;&#12392;&#30330;&#35441;</text><ellipse cx="484" cy="589.707" fill="none" rx="11" ry="11" style="stroke:#222222;stroke-width:1.0;"/><ellipse cx="484" cy="589.707" fill="#222222" rx="6" ry="6" style="stroke:#222222;stroke-width:1.0;"/><rect fill="#F1F1F1" height="50.1875" rx="12.5" ry="12.5" style="stroke:#181818;stroke-width:0.5;" width="116" x="603" y="493.5195"/><text fill="#000000" font-family="sans-serif" font-size="12" lengthAdjust="spacing" textLength="72" x="613" y="515.9766">&#38609;&#35527;&#12434;&#23455;&#26045;&#12290;</text><text fill="#000000" font-family="sans-serif" font-size="12" lengthAdjust="spacing" textLength="96" x="613" y="531.0703">&#12514;&#12540;&#12489;&#25552;&#26696;&#12375;&#12394;&#12356;</text><ellipse cx="661" cy="589.707" fill="none" rx="11" ry="11" style="stroke:#222222;stroke-width:1.0;"/><ellipse cx="661" cy="589.707" fill="#222222" rx="6" ry="6" style="stroke:#222222;stroke-width:1.0;"/><rect fill="none" height="319.1484" style="stroke:#000000;stroke-width:1.5;" width="186" x="794" y="342.7305"/><path d="M890,342.7305 L890,353.3398 L880,363.3398 L794,363.3398 " fill="none" style="stroke:#000000;stroke-width:1.5;"/><text fill="#000000" font-family="sans-serif" font-size="14" lengthAdjust="spacing" textLength="86" x="797" y="358.2637">&lt;&#12514;&#12540;&#12489;&#38283;&#22987;&gt;</text><rect fill="none" height="229.5391" style="stroke:#000000;stroke-width:1.5;" width="166" x="804" y="380.3398"/><path d="M875,380.3398 L875,390.9492 L865,400.9492 L804,400.9492 " fill="none" style="stroke:#000000;stroke-width:1.5;"/><text fill="#000000" font-family="sans-serif" font-size="14" lengthAdjust="spacing" textLength="61" x="807" y="395.873">SYSRS***</text><rect fill="#F1F1F1" height="35.0938" rx="12.5" ry="12.5" style="stroke:#181818;stroke-width:0.5;" width="128" x="816" y="466.8672"/><text fill="#000000" font-family="sans-serif" font-size="12" lengthAdjust="spacing" textLength="108" x="826" y="489.3242">&#12456;&#12521;&#12540;&#24540;&#31572;&#25991;&#12434;&#30330;&#35441;</text><ellipse cx="880" cy="547.9609" fill="none" rx="11" ry="11" style="stroke:#222222;stroke-width:1.0;"/><ellipse cx="880" cy="547.9609" fill="#222222" rx="6" ry="6" style="stroke:#222222;stroke-width:1.0;"/><polygon fill="#F1F1F1" points="841.5,417.9492,918.5,417.9492,930.5,429.9492,918.5,441.9492,841.5,441.9492,829.5,429.9492,841.5,417.9492" style="stroke:#181818;stroke-width:0.5;"/><text fill="#000000" font-family="sans-serif" font-size="11" lengthAdjust="spacing" textLength="22" x="884" y="453.3682">&#19981;&#21487;</text><text fill="#000000" font-family="sans-serif" font-size="11" lengthAdjust="spacing" textLength="77" x="841.5" y="434.4502">&#12514;&#12540;&#12489;&#23455;&#34892;&#21487;&#21542;</text><text fill="#000000" font-family="sans-serif" font-size="11" lengthAdjust="spacing" textLength="11" x="930.5" y="427.5322">&#21487;</text><ellipse cx="880" cy="639.8789" fill="#F1F1F1" rx="10" ry="10" style="stroke:#181818;stroke-width:0.5;"/><path d="M876.4844,643.8789 L879.7813,635.2852 L881,635.2852 L884.5156,643.8789 L883.2344,643.8789 L882.2188,641.2695 L878.6406,641.2695 L877.6875,643.8789 L876.4844,643.8789 Z M878.9688,640.3477 L881.875,640.3477 L880.9844,637.9727 Q880.5625,636.8945 880.375,636.1914 Q880.2031,637.0195 879.9063,637.832 L878.9688,640.3477 Z " fill="#000000"/><rect fill="#F1F1F1" height="35.0938" rx="12.5" ry="12.5" style="stroke:#181818;stroke-width:0.5;" width="126" x="990" y="342.7305"/><text fill="#000000" font-family="sans-serif" font-size="12" lengthAdjust="spacing" textLength="106" x="1000" y="365.1875">xx&#12514;&#12540;&#12489;&#12434;&#32066;&#20102;&#12377;&#12427;</text><ellipse cx="1053" cy="423.8242" fill="none" rx="11" ry="11" style="stroke:#222222;stroke-width:1.0;"/><ellipse cx="1053" cy="423.8242" fill="#222222" rx="6" ry="6" style="stroke:#222222;stroke-width:1.0;"/><ellipse cx="565.5" cy="693.8789" fill="#F1F1F1" rx="10" ry="10" style="stroke:#181818;stroke-width:0.5;"/><path d="M561.9844,697.8789 L565.2813,689.2852 L566.5,689.2852 L570.0156,697.8789 L568.7344,697.8789 L567.7188,695.2695 L564.1406,695.2695 L563.1875,697.8789 L561.9844,697.8789 Z M564.4688,694.3477 L567.375,694.3477 L566.4844,691.9727 Q566.0625,690.8945 565.875,690.1914 Q565.7031,691.0195 565.4063,691.832 L564.4688,694.3477 Z " fill="#000000"/><rect fill="none" height="179.4463" style="stroke:#000000;stroke-width:1.5;" width="286" x="478.5" y="713.8789"/><path d="M549.5,713.8789 L549.5,724.4883 L539.5,734.4883 L478.5,734.4883 " fill="none" style="stroke:#000000;stroke-width:1.5;"/><text fill="#000000" font-family="sans-serif" font-size="14" lengthAdjust="spacing" textLength="61" x="481.5" y="729.4121">SYSRS***</text><polygon fill="#F1F1F1" points="510.5,800.4063,620.5,800.4063,632.5,812.4063,620.5,824.4063,510.5,824.4063,498.5,812.4063,510.5,800.4063" style="stroke:#181818;stroke-width:0.5;"/><text fill="#000000" font-family="sans-serif" font-size="11" lengthAdjust="spacing" textLength="55" x="569.5" y="835.8252">&#32153;&#32154;&#12434;&#36984;&#25246;</text><text fill="#000000" font-family="sans-serif" font-size="11" lengthAdjust="spacing" textLength="110" x="510.5" y="816.9072">&#12514;&#12540;&#12489;&#32153;&#32154;&#12377;&#12427;&#12363;&#30906;&#35469;</text><text fill="#000000" font-family="sans-serif" font-size="11" lengthAdjust="spacing" textLength="55" x="632.5" y="796.1533">&#32066;&#20102;&#12434;&#36984;&#25246;</text><text fill="#000000" font-family="sans-serif" font-size="11" lengthAdjust="spacing" textLength="44" x="632.5" y="809.9893">&#24540;&#31572;&#12394;&#12375;</text><ellipse cx="709.5" cy="812.4063" fill="none" rx="11" ry="11" style="stroke:#222222;stroke-width:1.0;"/><ellipse cx="709.5" cy="812.4063" fill="#222222" rx="6" ry="6" style="stroke:#222222;stroke-width:1.0;"/><polygon fill="#F1F1F1" points="527,751.4883,604,751.4883,616,763.4883,604,775.4883,527,775.4883,515,763.4883,527,751.4883" style="stroke:#181818;stroke-width:0.5;"/><text fill="#000000" font-family="sans-serif" font-size="11" lengthAdjust="spacing" textLength="33" x="569.5" y="786.9072">&#40644;&#20449;&#21495;</text><text fill="#000000" font-family="sans-serif" font-size="11" lengthAdjust="spacing" textLength="77" x="527" y="767.9893">&#12496;&#12483;&#12486;&#12522;&#27531;&#23481;&#37327;</text><text fill="#000000" font-family="sans-serif" font-size="11" lengthAdjust="spacing" textLength="33" x="616" y="761.0713">&#38738;&#20449;&#21495;</text><polygon fill="#F1F1F1" points="565.5,857.3252,577.5,869.3252,565.5,881.3252,553.5,869.3252,565.5,857.3252" style="stroke:#181818;stroke-width:0.5;"/><rect fill="none" height="382.0508" style="stroke:#000000;stroke-width:1.5;" width="315" x="479.5" y="903.3252"/><path d="M550.5,903.3252 L550.5,913.9346 L540.5,923.9346 L479.5,923.9346 " fill="none" style="stroke:#000000;stroke-width:1.5;"/><text fill="#000000" font-family="sans-serif" font-size="14" lengthAdjust="spacing" textLength="61" x="482.5" y="918.8584">SYSRS***</text><rect fill="#F1F1F1" height="35.0938" rx="12.5" ry="12.5" style="stroke:#181818;stroke-width:0.5;" width="80" x="525.5" y="1089.6885"/><text fill="#000000" font-family="sans-serif" font-size="12" lengthAdjust="spacing" textLength="60" x="535.5" y="1112.1455">&#20840;&#38283;&#12395;&#12377;&#12427;</text><polygon fill="#F1F1F1" points="521.5,1040.7705,609.5,1040.7705,621.5,1052.7705,609.5,1064.7705,521.5,1064.7705,509.5,1052.7705,521.5,1040.7705" style="stroke:#181818;stroke-width:0.5;"/><text fill="#000000" font-family="sans-serif" font-size="11" lengthAdjust="spacing" textLength="22" x="569.5" y="1076.1895">&#35377;&#21487;</text><text fill="#000000" font-family="sans-serif" font-size="11" lengthAdjust="spacing" textLength="88" x="521.5" y="1057.2715">&#20840;&#38283;&#12395;&#12377;&#12427;&#12363;&#30906;&#35469;</text><text fill="#000000" font-family="sans-serif" font-size="11" lengthAdjust="spacing" textLength="80" x="621.5" y="1050.3535">&#19981;&#35377;&#21487;,&#24540;&#31572;&#12394;&#12375;</text><ellipse cx="723.5" cy="1052.7705" fill="none" rx="11" ry="11" style="stroke:#222222;stroke-width:1.0;"/><ellipse cx="723.5" cy="1052.7705" fill="#222222" rx="6" ry="6" style="stroke:#222222;stroke-width:1.0;"/><polygon fill="#F1F1F1" points="565.5,984.9346,565.5,984.9346,577.5,996.9346,565.5,1008.9346,565.5,1008.9346,553.5,996.9346,565.5,984.9346" style="stroke:#181818;stroke-width:0.5;"/><text fill="#000000" font-family="sans-serif" font-size="11" lengthAdjust="spacing" textLength="36" x="569.5" y="1020.3535">&#21322;&#26684;&#32013;,</text><text fill="#000000" font-family="sans-serif" font-size="11" lengthAdjust="spacing" textLength="77" x="569.5" y="1034.1895">&#21322;&#26684;&#32013;&#12395;&#31292;&#20685;&#20013;</text><text fill="#000000" font-family="sans-serif" font-size="11" lengthAdjust="spacing" textLength="66" x="577.5" y="994.5176">&#20840;&#38283;&#12395;&#31292;&#20685;&#20013;</text><polygon fill="#F1F1F1" points="565.5,1150.2822,577.5,1162.2822,565.5,1174.2822,553.5,1162.2822,565.5,1150.2822" style="stroke:#181818;stroke-width:0.5;"/><rect fill="#F1F1F1" height="35.0938" rx="12.5" ry="12.5" style="stroke:#181818;stroke-width:0.5;" width="128" x="501.5" y="1194.2822"/><text fill="#000000" font-family="sans-serif" font-size="12" lengthAdjust="spacing" textLength="108" x="511.5" y="1216.7393">&#20840;&#38283;&#12395;&#12394;&#12427;&#12414;&#12391;&#24453;&#12388;</text><polygon fill="#F1F1F1" points="510.5,940.9346,620.5,940.9346,632.5,952.9346,620.5,964.9346,510.5,964.9346,498.5,952.9346,510.5,940.9346" style="stroke:#181818;stroke-width:0.5;"/><text fill="#000000" font-family="sans-serif" font-size="11" lengthAdjust="spacing" textLength="110" x="510.5" y="957.4355">&#12487;&#12451;&#12473;&#12503;&#12524;&#12452;&#26684;&#32013;&#29366;&#24907;</text><text fill="#000000" font-family="sans-serif" font-size="11" lengthAdjust="spacing" textLength="22" x="632.5" y="950.5176">&#20840;&#38283;</text><polygon fill="#F1F1F1" points="565.5,1249.376,577.5,1261.376,565.5,1273.376,553.5,1261.376,565.5,1249.376" style="stroke:#181818;stroke-width:0.5;"/><rect fill="none" height="148.7031" style="stroke:#000000;stroke-width:1.5;" width="268" x="419.5" y="1295.376"/><path d="M490.5,1295.376 L490.5,1305.9854 L480.5,1315.9854 L419.5,1315.9854 " fill="none" style="stroke:#000000;stroke-width:1.5;"/><text fill="#000000" font-family="sans-serif" font-size="14" lengthAdjust="spacing" textLength="61" x="422.5" y="1310.9092">SYSRS***</text><polygon fill="#F1F1F1" points="527,1332.9854,604,1332.9854,616,1344.9854,604,1356.9854,527,1356.9854,515,1344.9854,527,1332.9854" style="stroke:#181818;stroke-width:0.5;"/><text fill="#000000" font-family="sans-serif" font-size="11" lengthAdjust="spacing" textLength="77" x="527" y="1349.4863">&#12514;&#12540;&#12489;&#23455;&#34892;&#21487;&#21542;</text><text fill="#000000" font-family="sans-serif" font-size="11" lengthAdjust="spacing" textLength="22" x="493" y="1342.5684">&#19981;&#21487;</text><text fill="#000000" font-family="sans-serif" font-size="11" lengthAdjust="spacing" textLength="11" x="616" y="1342.5684">&#21487;</text><rect fill="#F1F1F1" height="35.0938" rx="12.5" ry="12.5" style="stroke:#181818;stroke-width:0.5;" width="128" x="439.5" y="1366.9854"/><text fill="#000000" font-family="sans-serif" font-size="12" lengthAdjust="spacing" textLength="108" x="449.5" y="1389.4424">&#12456;&#12521;&#12540;&#24540;&#31572;&#20998;&#12434;&#30330;&#35441;</text><rect fill="#F1F1F1" height="35.0938" rx="12.5" ry="12.5" style="stroke:#181818;stroke-width:0.5;" width="80" x="587.5" y="1366.9854"/><text fill="#000000" font-family="sans-serif" font-size="12" lengthAdjust="spacing" textLength="60" x="597.5" y="1389.4424">&#12514;&#12540;&#12489;&#23455;&#34892;</text><polygon fill="#F1F1F1" points="565.5,1408.0791,577.5,1420.0791,565.5,1432.0791,553.5,1420.0791,565.5,1408.0791" style="stroke:#181818;stroke-width:0.5;"/><ellipse cx="565.5" cy="1475.0791" fill="none" rx="11" ry="11" style="stroke:#222222;stroke-width:1.0;"/><ellipse cx="565.5" cy="1475.0791" fill="#222222" rx="6" ry="6" style="stroke:#222222;stroke-width:1.0;"/><line style="stroke:#181818;stroke-width:1.0;" x1="565.5" x2="565.5" y1="30" y2="50"/><polygon fill="#181818" points="561.5,40,565.5,50,569.5,40,565.5,44" style="stroke:#181818;stroke-width:1.0;"/><line style="stroke:#181818;stroke-width:1.0;" x1="565.5" x2="565.5" y1="189.1055" y2="217.0586"/><polygon fill="#181818" points="561.5,207.0586,565.5,217.0586,569.5,207.0586,565.5,211.0586" style="stroke:#181818;stroke-width:1.0;"/><line style="stroke:#181818;stroke-width:1.0;" x1="565.5" x2="565.5" y1="129.0938" y2="154.0117"/><polygon fill="#181818" points="561.5,144.0117,565.5,154.0117,569.5,144.0117,565.5,148.0117" style="stroke:#181818;stroke-width:1.0;"/><line style="stroke:#181818;stroke-width:1.0;" x1="594" x2="687.5" y1="117.0938" y2="117.0938"/><polygon fill="#181818" points="683.5,187.0586,687.5,197.0586,691.5,187.0586,687.5,191.0586" style="stroke:#181818;stroke-width:1.0;"/><line style="stroke:#181818;stroke-width:1.0;" x1="687.5" x2="687.5" y1="117.0938" y2="261.0586"/><line style="stroke:#181818;stroke-width:1.0;" x1="687.5" x2="565.5" y1="261.0586" y2="261.0586"/><line style="stroke:#181818;stroke-width:1.0;" x1="565.5" x2="565.5" y1="261.0586" y2="281.0586"/><polygon fill="#181818" points="561.5,271.0586,565.5,281.0586,569.5,271.0586,565.5,275.0586" style="stroke:#181818;stroke-width:1.0;"/><line style="stroke:#181818;stroke-width:1.0;" x1="565.5" x2="565.5" y1="85.0938" y2="105.0938"/><polygon fill="#181818" points="561.5,95.0938,565.5,105.0938,569.5,95.0938,565.5,99.0938" style="stroke:#181818;stroke-width:1.0;"/><line style="stroke:#181818;stroke-width:1.0;" x1="81" x2="81" y1="454.3633" y2="489.3633"/><polygon fill="#181818" points="77,479.3633,81,489.3633,85,479.3633,81,483.3633" style="stroke:#181818;stroke-width:1.0;"/><line style="stroke:#181818;stroke-width:1.0;" x1="484" x2="484" y1="543.707" y2="578.707"/><polygon fill="#181818" points="480,568.707,484,578.707,488,568.707,484,572.707" style="stroke:#181818;stroke-width:1.0;"/><line style="stroke:#181818;stroke-width:1.0;" x1="661" x2="661" y1="543.707" y2="578.707"/><polygon fill="#181818" points="657,568.707,661,578.707,665,568.707,661,572.707" style="stroke:#181818;stroke-width:1.0;"/><line style="stroke:#181818;stroke-width:1.0;" x1="410" x2="159" y1="416.1758" y2="416.1758"/><line style="stroke:#181818;stroke-width:1.0;" x1="159" x2="159" y1="416.1758" y2="479.6836"/><polygon fill="#181818" points="155,469.6836,159,479.6836,163,469.6836,159,473.6836" style="stroke:#181818;stroke-width:1.0;"/><text fill="#000000" font-family="sans-serif" font-size="11" lengthAdjust="spacing" textLength="88" x="159" y="452.4307">&#12514;&#12540;&#12489;&#25552;&#26696;&#12434;&#35377;&#21487;</text><line style="stroke:#181818;stroke-width:1.0;" x1="489" x2="661" y1="416.1758" y2="416.1758"/><line style="stroke:#181818;stroke-width:1.0;" x1="661" x2="661" y1="416.1758" y2="493.5195"/><polygon fill="#181818" points="657,483.5195,661,493.5195,665,483.5195,661,487.5195" style="stroke:#181818;stroke-width:1.0;"/><text fill="#000000" font-family="sans-serif" font-size="11" lengthAdjust="spacing" textLength="99" x="661" y="452.4307">&#25552;&#26696;&#12375;&#12383;&#12356;&#12514;&#12540;&#12489;&#12364;</text><text fill="#000000" font-family="sans-serif" font-size="11" lengthAdjust="spacing" textLength="44" x="661" y="466.2666">&#23455;&#34892;&#19981;&#21487;</text><line style="stroke:#181818;stroke-width:1.0;" x1="278" x2="278" y1="416.1758" y2="493.5195"/><polygon fill="#181818" points="274,483.5195,278,493.5195,282,483.5195,278,487.5195" style="stroke:#181818;stroke-width:1.0;"/><text fill="#000000" font-family="sans-serif" font-size="11" lengthAdjust="spacing" textLength="102" x="278" y="447.4307">&#12514;&#12540;&#12489;&#25552;&#26696;&#12434;&#19981;&#35377;&#21487;,</text><text fill="#000000" font-family="sans-serif" font-size="11" lengthAdjust="spacing" textLength="44" x="278" y="461.2666">&#24540;&#31572;&#12394;&#12375;</text><line style="stroke:#181818;stroke-width:1.0;" x1="449.5" x2="449.5" y1="428.1758" y2="449.957"/><line style="stroke:#181818;stroke-width:1.0;" x1="449.5" x2="484" y1="449.957" y2="449.957"/><line style="stroke:#181818;stroke-width:1.0;" x1="484" x2="484" y1="449.957" y2="493.5195"/><polygon fill="#181818" points="480,483.5195,484,493.5195,488,483.5195,484,487.5195" style="stroke:#181818;stroke-width:1.0;"/><text fill="#000000" font-family="sans-serif" font-size="11" lengthAdjust="spacing" textLength="99" x="449.5" y="453.4307">&#25552;&#26696;&#12375;&#12383;&#12356;&#12514;&#12540;&#12489;&#12364;</text><text fill="#000000" font-family="sans-serif" font-size="11" lengthAdjust="spacing" textLength="55" x="449.5" y="467.2666">&#26082;&#12395;&#23455;&#34892;&#20013;</text><line style="stroke:#181818;stroke-width:1.0;" x1="253.25" x2="81" y1="382.1758" y2="382.1758"/><line style="stroke:#181818;stroke-width:1.0;" x1="81" x2="81" y1="382.1758" y2="404.1758"/><polygon fill="#181818" points="77,394.1758,81,404.1758,85,394.1758,81,398.1758" style="stroke:#181818;stroke-width:1.0;"/><line style="stroke:#181818;stroke-width:1.0;" x1="277.25" x2="449.5" y1="382.1758" y2="382.1758"/><line style="stroke:#181818;stroke-width:1.0;" x1="449.5" x2="449.5" y1="382.1758" y2="404.1758"/><polygon fill="#181818" points="445.5,394.1758,449.5,404.1758,453.5,394.1758,449.5,398.1758" style="stroke:#181818;stroke-width:1.0;"/><line style="stroke:#181818;stroke-width:1.0;" x1="880" x2="880" y1="501.9609" y2="536.9609"/><polygon fill="#181818" points="876,526.9609,880,536.9609,884,526.9609,880,530.9609" style="stroke:#181818;stroke-width:1.0;"/><line style="stroke:#181818;stroke-width:1.0;" x1="880" x2="880" y1="441.9492" y2="466.8672"/><polygon fill="#181818" points="876,456.8672,880,466.8672,884,456.8672,880,460.8672" style="stroke:#181818;stroke-width:1.0;"/><line style="stroke:#181818;stroke-width:1.0;" x1="930.5" x2="954" y1="429.9492" y2="429.9492"/><polygon fill="#181818" points="950,499.9141,954,509.9141,958,499.9141,954,503.9141" style="stroke:#181818;stroke-width:1.0;"/><line style="stroke:#181818;stroke-width:1.0;" x1="954" x2="954" y1="429.9492" y2="589.8789"/><line style="stroke:#181818;stroke-width:1.0;" x1="954" x2="880" y1="589.8789" y2="589.8789"/><line style="stroke:#181818;stroke-width:1.0;" x1="880" x2="880" y1="589.8789" y2="629.8789"/><polygon fill="#181818" points="876,619.8789,880,629.8789,884,619.8789,880,623.8789" style="stroke:#181818;stroke-width:1.0;"/><line style="stroke:#181818;stroke-width:1.0;" x1="1053" x2="1053" y1="377.8242" y2="412.8242"/><polygon fill="#181818" points="1049,402.8242,1053,412.8242,1057,402.8242,1053,406.8242" style="stroke:#181818;stroke-width:1.0;"/><line style="stroke:#181818;stroke-width:1.0;" x1="531.5" x2="265.25" y1="293.0586" y2="293.0586"/><line style="stroke:#181818;stroke-width:1.0;" x1="265.25" x2="265.25" y1="293.0586" y2="370.1758"/><polygon fill="#181818" points="261.25,360.1758,265.25,370.1758,269.25,360.1758,265.25,364.1758" style="stroke:#181818;stroke-width:1.0;"/><line style="stroke:#181818;stroke-width:1.0;" x1="599.5" x2="1053" y1="293.0586" y2="293.0586"/><line style="stroke:#181818;stroke-width:1.0;" x1="1053" x2="1053" y1="293.0586" y2="342.7305"/><polygon fill="#181818" points="1049,332.7305,1053,342.7305,1057,332.7305,1053,336.7305" style="stroke:#181818;stroke-width:1.0;"/><text fill="#000000" font-family="sans-serif" font-size="11" lengthAdjust="spacing" textLength="65" x="1053" y="322.3955">xx&#12514;&#12540;&#12489;OFF</text><line style="stroke:#181818;stroke-width:1.0;" x1="880" x2="880" y1="293.0586" y2="417.9492"/><polygon fill="#181818" points="876,407.9492,880,417.9492,884,407.9492,880,411.9492" style="stroke:#181818;stroke-width:1.0;"/><text fill="#000000" font-family="sans-serif" font-size="11" lengthAdjust="spacing" textLength="60" x="880" y="355.0049">xx&#12514;&#12540;&#12489;ON</text><line style="stroke:#181818;stroke-width:1.0;" x1="565.5" x2="565.5" y1="824.4063" y2="857.3252"/><polygon fill="#181818" points="561.5,847.3252,565.5,857.3252,569.5,847.3252,565.5,851.3252" style="stroke:#181818;stroke-width:1.0;"/><line style="stroke:#181818;stroke-width:1.0;" x1="632.5" x2="698.5" y1="812.4063" y2="812.4063"/><polygon fill="#181818" points="688.5,808.4063,698.5,812.4063,688.5,816.4063,692.5,812.4063" style="stroke:#181818;stroke-width:1.0;"/><line style="stroke:#181818;stroke-width:1.0;" x1="565.5" x2="565.5" y1="775.4883" y2="800.4063"/><polygon fill="#181818" points="561.5,790.4063,565.5,800.4063,569.5,790.4063,565.5,794.4063" style="stroke:#181818;stroke-width:1.0;"/><line style="stroke:#181818;stroke-width:1.0;" x1="616" x2="742.5" y1="763.4883" y2="763.4883"/><polygon fill="#181818" points="738.5,827.3242,742.5,837.3242,746.5,827.3242,742.5,831.3242" style="stroke:#181818;stroke-width:1.0;"/><line style="stroke:#181818;stroke-width:1.0;" x1="742.5" x2="742.5" y1="763.4883" y2="869.3252"/><line style="stroke:#181818;stroke-width:1.0;" x1="742.5" x2="577.5" y1="869.3252" y2="869.3252"/><polygon fill="#181818" points="587.5,865.3252,577.5,869.3252,587.5,873.3252,583.5,869.3252" style="stroke:#181818;stroke-width:1.0;"/><line style="stroke:#181818;stroke-width:1.0;" x1="565.5" x2="565.5" y1="703.8789" y2="751.4883"/><polygon fill="#181818" points="561.5,741.4883,565.5,751.4883,569.5,741.4883,565.5,745.4883" style="stroke:#181818;stroke-width:1.0;"/><line style="stroke:#181818;stroke-width:1.0;" x1="565.5" x2="565.5" y1="1064.7705" y2="1089.6885"/><polygon fill="#181818" points="561.5,1079.6885,565.5,1089.6885,569.5,1079.6885,565.5,1083.6885" style="stroke:#181818;stroke-width:1.0;"/><line style="stroke:#181818;stroke-width:1.0;" x1="621.5" x2="712.5" y1="1052.7705" y2="1052.7705"/><polygon fill="#181818" points="702.5,1048.7705,712.5,1052.7705,702.5,1056.7705,706.5,1052.7705" style="stroke:#181818;stroke-width:1.0;"/><line style="stroke:#181818;stroke-width:1.0;" x1="565.5" x2="565.5" y1="1124.7822" y2="1150.2822"/><polygon fill="#181818" points="561.5,1140.2822,565.5,1150.2822,569.5,1140.2822,565.5,1144.2822" style="stroke:#181818;stroke-width:1.0;"/><line style="stroke:#181818;stroke-width:1.0;" x1="565.5" x2="565.5" y1="1008.9346" y2="1040.7705"/><polygon fill="#181818" points="561.5,1030.7705,565.5,1040.7705,569.5,1030.7705,565.5,1034.7705" style="stroke:#181818;stroke-width:1.0;"/><line style="stroke:#181818;stroke-width:1.0;" x1="577.5" x2="756.5" y1="996.9346" y2="996.9346"/><polygon fill="#181818" points="752.5,1085.2354,756.5,1095.2354,760.5,1085.2354,756.5,1089.2354" style="stroke:#181818;stroke-width:1.0;"/><line style="stroke:#181818;stroke-width:1.0;" x1="756.5" x2="756.5" y1="996.9346" y2="1162.2822"/><line style="stroke:#181818;stroke-width:1.0;" x1="756.5" x2="577.5" y1="1162.2822" y2="1162.2822"/><polygon fill="#181818" points="587.5,1158.2822,577.5,1162.2822,587.5,1166.2822,583.5,1162.2822" style="stroke:#181818;stroke-width:1.0;"/><line style="stroke:#181818;stroke-width:1.0;" x1="565.5" x2="565.5" y1="1174.2822" y2="1194.2822"/><polygon fill="#181818" points="561.5,1184.2822,565.5,1194.2822,569.5,1184.2822,565.5,1188.2822" style="stroke:#181818;stroke-width:1.0;"/><line style="stroke:#181818;stroke-width:1.0;" x1="565.5" x2="565.5" y1="964.9346" y2="984.9346"/><polygon fill="#181818" points="561.5,974.9346,565.5,984.9346,569.5,974.9346,565.5,978.9346" style="stroke:#181818;stroke-width:1.0;"/><line style="stroke:#181818;stroke-width:1.0;" x1="632.5" x2="778.5" y1="952.9346" y2="952.9346"/><polygon fill="#181818" points="774.5,1120.2822,778.5,1130.2822,782.5,1120.2822,778.5,1124.2822" style="stroke:#181818;stroke-width:1.0;"/><line style="stroke:#181818;stroke-width:1.0;" x1="778.5" x2="778.5" y1="952.9346" y2="1261.376"/><line style="stroke:#181818;stroke-width:1.0;" x1="778.5" x2="577.5" y1="1261.376" y2="1261.376"/><polygon fill="#181818" points="587.5,1257.376,577.5,1261.376,587.5,1265.376,583.5,1261.376" style="stroke:#181818;stroke-width:1.0;"/><line style="stroke:#181818;stroke-width:1.0;" x1="565.5" x2="565.5" y1="1229.376" y2="1249.376"/><polygon fill="#181818" points="561.5,1239.376,565.5,1249.376,569.5,1239.376,565.5,1243.376" style="stroke:#181818;stroke-width:1.0;"/><line style="stroke:#181818;stroke-width:1.0;" x1="565.5" x2="565.5" y1="881.3252" y2="940.9346"/><polygon fill="#181818" points="561.5,930.9346,565.5,940.9346,569.5,930.9346,565.5,934.9346" style="stroke:#181818;stroke-width:1.0;"/><line style="stroke:#181818;stroke-width:1.0;" x1="515" x2="503.5" y1="1344.9854" y2="1344.9854"/><line style="stroke:#181818;stroke-width:1.0;" x1="503.5" x2="503.5" y1="1344.9854" y2="1366.9854"/><polygon fill="#181818" points="499.5,1356.9854,503.5,1366.9854,507.5,1356.9854,503.5,1360.9854" style="stroke:#181818;stroke-width:1.0;"/><line style="stroke:#181818;stroke-width:1.0;" x1="616" x2="627.5" y1="1344.9854" y2="1344.9854"/><line style="stroke:#181818;stroke-width:1.0;" x1="627.5" x2="627.5" y1="1344.9854" y2="1366.9854"/><polygon fill="#181818" points="623.5,1356.9854,627.5,1366.9854,631.5,1356.9854,627.5,1360.9854" style="stroke:#181818;stroke-width:1.0;"/><line style="stroke:#181818;stroke-width:1.0;" x1="503.5" x2="503.5" y1="1402.0791" y2="1420.0791"/><line style="stroke:#181818;stroke-width:1.0;" x1="503.5" x2="553.5" y1="1420.0791" y2="1420.0791"/><polygon fill="#181818" points="543.5,1416.0791,553.5,1420.0791,543.5,1424.0791,547.5,1420.0791" style="stroke:#181818;stroke-width:1.0;"/><line style="stroke:#181818;stroke-width:1.0;" x1="627.5" x2="627.5" y1="1402.0791" y2="1420.0791"/><line style="stroke:#181818;stroke-width:1.0;" x1="627.5" x2="577.5" y1="1420.0791" y2="1420.0791"/><polygon fill="#181818" points="587.5,1416.0791,577.5,1420.0791,587.5,1424.0791,583.5,1420.0791" style="stroke:#181818;stroke-width:1.0;"/><line style="stroke:#181818;stroke-width:1.0;" x1="565.5" x2="565.5" y1="1273.376" y2="1332.9854"/><polygon fill="#181818" points="561.5,1322.9854,565.5,1332.9854,569.5,1322.9854,565.5,1326.9854" style="stroke:#181818;stroke-width:1.0;"/><line style="stroke:#181818;stroke-width:1.0;" x1="565.5" x2="565.5" y1="1432.0791" y2="1464.0791"/><polygon fill="#181818" points="561.5,1454.0791,565.5,1464.0791,569.5,1454.0791,565.5,1458.0791" style="stroke:#181818;stroke-width:1.0;"/><!--SRC=[jLLTJzDW5Bxlh-YTW_WBLcDYZ5ngmgvCk5cWP8jO26iYXf3mjcp0jcOmoEP4cNn4nf01eZXmi1zp-h7-2q_xqlLZQmqnlXTBt_LyFESvvpdDYCbvaNcKUPCMvfBpoRViyrbXAYscPuKNmbH2V3_3iwcPjC0pJDoiNse7vo1TWhmBClwkWrJkDPNUwGUEIK_7ZDfDx_X2Qv-Ei6AA5zZO-BnrOLWySI1RG5fu1r80QPrUzUDwJxu5SgRUTetj1f0Z80gGEo0x86rnjcT6d9rZ-9aCpyR6Q3mU0KupJEPTMfnCiKxQN5PhNTDaaqdBcZvR1miJxPBO9o3lWzn1w7ffGzzRUxhODx8E5k5WLpkRGBf0wa1MW3H7V7PsHUREPkza5IdGMdMzSWlBqeGG20-aYhuOWHjmjylo_a5BD2hVGIhQQPkF9mHZ1ud8g-qya28-HC1ns0WW63Hq2Gg2nMOsBhJIsN0VwyIUXR-RuiNaPEf1wTIsGZDYfLhtat6wRRDL3Kyom9e_XOTrcoWd8x8t8UZLVI0dsApUNb5rvdBOYSDoSM71TPRAs5Whvhazk2NZwYEGJNjCgo2j0id1CavjWmuYzr_0Ex2LoFxyuqn60aNLqHbZ0l-Y5ftRaaT-7WPVlOpMebafQ4U5W1PTmyJhn7XYT7HqSG0JwhKVX3A4z6WRNnqH3oNB4beiYiauI0sGZp4i7KgzOZ4QrTqmmZpKkFI4YIaWe2KcXConCTSlxfzJuwUatkI0r40gk4Zf1kstZx4I3xBBKdfjIZT0ba7EWTpKMmLSg-PgoQ7K_BsYTlUqqYyNXBSBnbNDbeU503UziN-37mZ7z_wbL3P9My_lkX7kTnz5xxoEsWa-mbsYQHppSzaBaRvU-al9sE83aAv1heBy3QH3_Kl7-A4O-IizM_2Lsfyj9KzjhENbFEE2CHeTJLO65WnwQja6JZgQXD3ZhiFePHZowGXRtl50NYv2m3HIts58BNvxR-ocNHCknIFjBWlaa6E24H_IZmXL1xKRrAksbWlezHw4tycVWlDXioZ-0m00]--></g></svg>